P2
20 20
255
36
22
1
39
28
35
0
0
0
0
0
0
0
80
55
73
45
56
46
42
30
26
16
32
40
17
0
0
0
0
0
0
0
68
49
76
70
67
69
40
4
19
19
15
20
3
0
0
0
0
0
0
0
76
43
0
78
42
70
78
40
10
35
40
2
32
0
0
0
59
0
0
0
60
73
0
0
0
71
65
15
13
1
3
23
0
0
0
0
74
0
0
0
68
49
44
50
63
0
61
6
21
0
0
0
0
0
0
0
73
0
0
0
75
66
72
55
42
0
66
0
0
0
0
0
0
0
0
0
76
0
0
0
63
42
76
47
73
0
0
196
0
0
0
0
0
0
0
75
52
0
0
0
65
60
42
0
0
0
238
191
191
196
181
0
69
71
68
49
65
80
73
78
45
79
51
0
0
215
218
194
191
198
0
0
47
45
69
78
0
0
0
0
0
0
0
236
208
207
235
180
199
189
0
0
75
44
64
74
0
153
152
126
122
139
138
0
0
237
201
174
165
177
173
0
0
56
56
0
0
159
0
0
0
0
136
151
0
224
231
200
166
171
186
171
0
0
0
0
133
124
0
0
0
0
158
0
0
0
0
163
197
182
161
197
176
195
183
0
0
129
132
0
0
137
132
0
92
98
109
169
187
185
194
188
167
199
195
0
0
144
146
0
0
0
0
99
82
83
80
200
164
163
184
195
192
168
0
0
152
120
129
133
0
99
116
92
80
118
102
193
175
191
164
194
0
0
255
0
154
152
150
0
0
114
102
89
117
114
95
193
161
178
0
0
255
255
255
0
0
0
0
0
110
108
88
86
109
82
99
175
174
198
0
255
255
255
255
255
255
0
0
90
100
107
112
0
119
116
109
173
166
168
0
255
255
255
255
255
255
255
0
0
0
0
0
93
87
83
98	
