P2
20 20
255
8
162
101
118
245
48
66
122
162
249
182
33
60
13
234
193
104
219
17
146
183
0
0
0
0
0
0
0
0
0
0
0
0
0
0
0
0
0
0
0
20
227
49
240
250
167
73
91
160
123
193
101
36
161
165
104
142
106
42
17
0
0
0
0
0
0
0
0
0
0
0
0
0
0
0
0
0
0
0
78
194
42
92
223
32
7
54
115
101
236
47
225
178
105
123
232
35
122
161
222
19
0
0
0
0
0
0
0
0
0
0
0
0
0
0
0
0
0
0
0
153
142
102
164
137
152
68
244
246
62
75
219
215
220
121
42
250
32
120
62
0
0
0
0
0
0
0
0
0
0
0
0
0
0
0
0
0
0
0
100
209
18
91
51
213
141
9
221
84
141
234
221
131
201
248
186
175
192
192
225
116
0
0
0
0
0
0
0
0
0
0
0
0
0
0
0
0
0
0
0
161
186
110
16
14
66
103
13
142
217
147
244
80
89
182
72
78
171
237
164
0
0
0
0
0
0
0
0
0
0
0
0
0
0
0
0
0
0
0
147
92
177
121
113
11
132
118
16
69
73
60
102
45
217
100
1
177
83
102
77
113
0
0
0
0
0
0
0
0
0
0
0
0
0
0
0
0
0
0
0
194
214
150
27
72
30
141
84
232
246
255
78
84
92
34
84
49
22
191
115
0
0
0
0
0
0
0
0
0
0
0
0
0
0
0
0
0
0
0
40
203
129
55
115
213
63
213
11
168
93
233
247
118
64
117
1
113
76
123
125
49
0
0
0
0
0
0
0
0
0
0
0
0
0
0
0
0
0
0
0
129
78
219
12
153
180
26
242
115
157
164
117
180
127
220
203
176
72
35
188
0
0
0
0
0
0
0
0
0
0
0
0
0
0
0
0
0
0
0
125