P2
10 10
255
231	208	245	236	249	0	55	83	80	77 	
222	248	201	234	235	202	0	60	73	67 	
225	205	204	246	203	246	213	0 	87 	67 	
229	245	241	234	254	228	0	53	84	56 	
225	215	206	231	228	207	0	91	58	86 	
231	223	246	239	237	0	71	61	83	60 	
236	218	224	246	245	234	0	79	78	91 	
223	252	200	222	222	0	81	70	51	75 	
253	253	246	252	247	207	0	87	74	63 	
240	243	250	245	240	224	0	69	66	59 	
