P2
20 20
255
208
21
139
96
38
169
0
172
123
115
172
154
0
227
153
29
234
109
222
39
5
241
176
62
133
69
0
152
145
154
99
93
0
74
85
47
241
23
207
45
25
92
229
196
163
139
0
189
76
0
0
220
0
2
152
0
79
44
249
203
5
8
75
228
108
125
0
129
0
39
0
18
0
144
30
0
0
0
172
54
222
3
25
196
240
0
0
1
0
11
0
226
0
202
20
203
235
169
0
93
238
184
0
0
0
0
249
123
0
178
0
252
0
91
152
49
119
200
0
31
0
0
220
170
165
11
148
0
0
52
0
233
0
241
131
83
173
196
0
0
204
0
0
0
0
0
0
0
92
225
0
0
0
141
159
182
0
0
0
143
141
178
217
74
0
174
243
164
200
98
138
122
67
44
34
96
0
0
68
118
133
227
39
0
0
118
234
247
38
0
0
0
0
0
0
0
243
247
108
153
54
185
145
0
0
9
102
9
57
0
159
210
128
152
171
4
0
0
118
139
225
161
52
17
0
0
115
129
0
0
170
0
0
0
0
83
45
0
204
91
212
57
167
39
174
0
0
0
0
89
178
0
197
0
0
219
0
0
0
0
173
113
78
184
115
48
107
253
0
0
53
216
0
0
109
245
0
102
42
26
251
187
218
234
139
140
84
101
0
0
64
102
0
0
0
0
106
111
237
26
164
142
31
222
63
218
252
0
0
228
151
76
169
0
95
153
168
195
157
127
141
157
99
86
156
0
0
109
0
227
97
54
0
0
144
11
237
169
67
53
171
211
226
0
0
156
208
207
0
0
0
0
0
249
56
229
194
48
216
197
29
200
99
0
188
160
178
199
145
244
0
0
162
163
254
201
0
120
239
5
51
134
175
0
193
216
79
49
89
86
180
0
0
0
0
0
35
37
42
26